<svg id="visual" viewBox="0 0 900 600" width="900" height="600" xmlns="http://www.w3.org/2000/svg" xmlns:xlink="http://www.w3.org/1999/xlink" version="1.1"><rect x="0" y="0" width="900" height="600" fill="#0C1C29"></rect><path d="M0 335L129 270L257 257L386 305L514 283L643 286L771 268L900 311L900 601L771 601L643 601L514 601L386 601L257 601L129 601L0 601Z" fill="#0f3446"></path><path d="M0 273L129 337L257 283L386 346L514 355L643 321L771 335L900 282L900 601L771 601L643 601L514 601L386 601L257 601L129 601L0 601Z" fill="#124254"></path><path d="M0 367L129 355L257 345L386 342L514 365L643 362L771 334L900 376L900 601L771 601L643 601L514 601L386 601L257 601L129 601L0 601Z" fill="#155162"></path><path d="M0 373L129 429L257 457L386 458L514 389L643 379L771 428L900 396L900 601L771 601L643 601L514 601L386 601L257 601L129 601L0 601Z" fill="#19606f"></path><path d="M0 440L129 441L257 494L386 474L514 460L643 479L771 491L900 477L900 601L771 601L643 601L514 601L386 601L257 601L129 601L0 601Z" fill="#20707b"></path><path d="M0 494L129 493L257 515L386 509L514 491L643 482L771 504L900 510L900 601L771 601L643 601L514 601L386 601L257 601L129 601L0 601Z" fill="#298086"></path><path d="M0 519L129 532L257 529L386 540L514 548L643 563L771 552L900 519L900 601L771 601L643 601L514 601L386 601L257 601L129 601L0 601Z" fill="#369090"></path></svg>