<svg id="visual" viewBox="0 0 900 600" width="900" height="600" xmlns="http://www.w3.org/2000/svg" xmlns:xlink="http://www.w3.org/1999/xlink" version="1.1"><g stroke-width="1" stroke-linejoin="bevel"><path d="M424 303L471 253L429 250Z" fill="#174657" stroke="#0F3446"></path><path d="M424 303L491 284L471 253Z" fill="#153b4c" stroke="#0F3446"></path><path d="M491 284L498 227L471 253Z" fill="#174657" stroke="#0F3446"></path><path d="M471 253L446 163L429 250Z" fill="#174657" stroke="#0F3446"></path><path d="M424 303L524 333L491 284Z" fill="#369090" stroke="#0F3446"></path><path d="M491 284L547 262L498 227Z" fill="#257780" stroke="#0F3446"></path><path d="M429 250L348 281L424 303Z" fill="#0c1c29" stroke="#0F3446"></path><path d="M424 303L442 383L524 333Z" fill="#257780" stroke="#0F3446"></path><path d="M524 333L547 262L491 284Z" fill="#369090" stroke="#0F3446"></path><path d="M428 390L442 383L424 303Z" fill="#206a76" stroke="#0F3446"></path><path d="M396 172L357 214L429 250Z" fill="#1c5e6c" stroke="#0F3446"></path><path d="M429 250L357 214L348 281Z" fill="#174657" stroke="#0F3446"></path><path d="M363 386L428 390L424 303Z" fill="#123040" stroke="#0F3446"></path><path d="M494 136L446 163L498 227Z" fill="#1c5e6c" stroke="#0F3446"></path><path d="M498 227L446 163L471 253Z" fill="#174657" stroke="#0F3446"></path><path d="M446 163L396 172L429 250Z" fill="#206a76" stroke="#0F3446"></path><path d="M348 281L363 386L424 303Z" fill="#0c1c29" stroke="#0F3446"></path><path d="M578 150L494 136L498 227Z" fill="#1c5e6c" stroke="#0F3446"></path><path d="M446 163L380 53L396 172Z" fill="#257780" stroke="#0F3446"></path><path d="M603 317L597 238L547 262Z" fill="#123040" stroke="#0F3446"></path><path d="M547 262L597 238L498 227Z" fill="#1c5e6c" stroke="#0F3446"></path><path d="M363 386L402 429L428 390Z" fill="#1c5e6c" stroke="#0F3446"></path><path d="M428 390L452 500L442 383Z" fill="#174657" stroke="#0F3446"></path><path d="M586 392L603 317L524 333Z" fill="#257780" stroke="#0F3446"></path><path d="M586 392L524 333L580 416Z" fill="#174657" stroke="#0F3446"></path><path d="M524 333L603 317L547 262Z" fill="#0f2635" stroke="#0F3446"></path><path d="M357 214L281 279L348 281Z" fill="#206a76" stroke="#0F3446"></path><path d="M348 281L281 279L363 386Z" fill="#174657" stroke="#0F3446"></path><path d="M274 191L281 279L357 214Z" fill="#174657" stroke="#0F3446"></path><path d="M281 279L341 410L363 386Z" fill="#123040" stroke="#0F3446"></path><path d="M363 386L341 410L402 429Z" fill="#1c5e6c" stroke="#0F3446"></path><path d="M603 317L626 293L597 238Z" fill="#369090" stroke="#0F3446"></path><path d="M580 416L524 333L442 383Z" fill="#2d8388" stroke="#0F3446"></path><path d="M603 317L636 371L626 293Z" fill="#0c1c29" stroke="#0F3446"></path><path d="M652 172L578 150L597 238Z" fill="#123040" stroke="#0F3446"></path><path d="M597 238L578 150L498 227Z" fill="#1c5e6c" stroke="#0F3446"></path><path d="M513 510L580 416L442 383Z" fill="#2d8388" stroke="#0F3446"></path><path d="M586 392L636 371L603 317Z" fill="#0c1c29" stroke="#0F3446"></path><path d="M254 123L274 191L396 172Z" fill="#1c5e6c" stroke="#0F3446"></path><path d="M396 172L274 191L357 214Z" fill="#369090" stroke="#0F3446"></path><path d="M227 378L312 432L341 410Z" fill="#153b4c" stroke="#0F3446"></path><path d="M341 410L312 432L402 429Z" fill="#1c5e6c" stroke="#0F3446"></path><path d="M573 92L508 81L494 136Z" fill="#153b4c" stroke="#0F3446"></path><path d="M494 136L380 53L446 163Z" fill="#123040" stroke="#0F3446"></path><path d="M274 191L241 268L281 279Z" fill="#206a76" stroke="#0F3446"></path><path d="M281 279L227 378L341 410Z" fill="#2d8388" stroke="#0F3446"></path><path d="M580 416L636 371L586 392Z" fill="#123040" stroke="#0F3446"></path><path d="M372 588L452 500L402 429Z" fill="#0f2635" stroke="#0F3446"></path><path d="M402 429L452 500L428 390Z" fill="#153b4c" stroke="#0F3446"></path><path d="M578 150L573 92L494 136Z" fill="#369090" stroke="#0F3446"></path><path d="M614 79L573 92L578 150Z" fill="#369090" stroke="#0F3446"></path><path d="M716 263L597 238L626 293Z" fill="#257780" stroke="#0F3446"></path><path d="M716 263L652 172L597 238Z" fill="#123040" stroke="#0F3446"></path><path d="M487 0L380 53L508 81Z" fill="#123040" stroke="#0F3446"></path><path d="M508 81L380 53L494 136Z" fill="#206a76" stroke="#0F3446"></path><path d="M452 500L513 510L442 383Z" fill="#369090" stroke="#0F3446"></path><path d="M580 416L723 462L636 371Z" fill="#369090" stroke="#0F3446"></path><path d="M241 268L227 378L281 279Z" fill="#1c5e6c" stroke="#0F3446"></path><path d="M227 378L275 454L312 432Z" fill="#123040" stroke="#0F3446"></path><path d="M312 432L286 472L402 429Z" fill="#2d8388" stroke="#0F3446"></path><path d="M380 53L254 123L396 172Z" fill="#123040" stroke="#0F3446"></path><path d="M274 191L186 251L241 268Z" fill="#174657" stroke="#0F3446"></path><path d="M241 268L186 251L227 378Z" fill="#123040" stroke="#0F3446"></path><path d="M162 462L286 472L275 454Z" fill="#153b4c" stroke="#0F3446"></path><path d="M275 454L286 472L312 432Z" fill="#1c5e6c" stroke="#0F3446"></path><path d="M636 371L704 291L626 293Z" fill="#206a76" stroke="#0F3446"></path><path d="M652 172L614 79L578 150Z" fill="#257780" stroke="#0F3446"></path><path d="M505 0L487 0L508 81Z" fill="#206a76" stroke="#0F3446"></path><path d="M671 92L614 79L652 172Z" fill="#0c1c29" stroke="#0F3446"></path><path d="M171 160L186 251L274 191Z" fill="#2d8388" stroke="#0F3446"></path><path d="M704 291L716 263L626 293Z" fill="#0f2635" stroke="#0F3446"></path><path d="M505 0L508 81L573 92Z" fill="#206a76" stroke="#0F3446"></path><path d="M487 0L392 0L380 53Z" fill="#257780" stroke="#0F3446"></path><path d="M380 53L265 49L254 123Z" fill="#1c5e6c" stroke="#0F3446"></path><path d="M639 0L505 0L573 92Z" fill="#206a76" stroke="#0F3446"></path><path d="M799 142L671 92L652 172Z" fill="#2d8388" stroke="#0F3446"></path><path d="M614 79L639 0L573 92Z" fill="#1c5e6c" stroke="#0F3446"></path><path d="M289 0L265 49L380 53Z" fill="#0f2635" stroke="#0F3446"></path><path d="M254 123L171 160L274 191Z" fill="#1c5e6c" stroke="#0F3446"></path><path d="M227 378L197 433L275 454Z" fill="#195262" stroke="#0F3446"></path><path d="M124 365L197 433L227 378Z" fill="#0c1c29" stroke="#0F3446"></path><path d="M244 0L261 50L265 49Z" fill="#206a76" stroke="#0F3446"></path><path d="M265 49L261 50L254 123Z" fill="#2d8388" stroke="#0F3446"></path><path d="M704 291L741 240L716 263Z" fill="#0c1c29" stroke="#0F3446"></path><path d="M716 263L741 240L652 172Z" fill="#174657" stroke="#0F3446"></path><path d="M426 600L470 574L452 500Z" fill="#257780" stroke="#0F3446"></path><path d="M452 500L470 574L513 510Z" fill="#0c1c29" stroke="#0F3446"></path><path d="M513 510L563 577L580 416Z" fill="#369090" stroke="#0F3446"></path><path d="M636 371L774 385L704 291Z" fill="#153b4c" stroke="#0F3446"></path><path d="M372 588L402 429L286 472Z" fill="#0f2635" stroke="#0F3446"></path><path d="M135 90L171 160L254 123Z" fill="#0f2635" stroke="#0F3446"></path><path d="M186 251L123 342L227 378Z" fill="#1c5e6c" stroke="#0F3446"></path><path d="M258 582L372 588L286 472Z" fill="#369090" stroke="#0F3446"></path><path d="M511 600L513 510L470 574Z" fill="#174657" stroke="#0F3446"></path><path d="M511 600L563 577L513 510Z" fill="#153b4c" stroke="#0F3446"></path><path d="M704 291L774 385L741 240Z" fill="#0f2635" stroke="#0F3446"></path><path d="M392 0L289 0L380 53Z" fill="#153b4c" stroke="#0F3446"></path><path d="M135 90L130 157L171 160Z" fill="#1c5e6c" stroke="#0F3446"></path><path d="M372 588L426 600L452 500Z" fill="#369090" stroke="#0F3446"></path><path d="M426 600L496 600L470 574Z" fill="#0c1c29" stroke="#0F3446"></path><path d="M496 600L511 600L470 574Z" fill="#153b4c" stroke="#0F3446"></path><path d="M616 600L723 462L580 416Z" fill="#123040" stroke="#0F3446"></path><path d="M25 286L123 342L186 251Z" fill="#195262" stroke="#0F3446"></path><path d="M123 342L124 365L227 378Z" fill="#206a76" stroke="#0F3446"></path><path d="M747 43L639 0L671 92Z" fill="#369090" stroke="#0F3446"></path><path d="M671 92L639 0L614 79Z" fill="#257780" stroke="#0F3446"></path><path d="M511 600L554 600L563 577Z" fill="#195262" stroke="#0F3446"></path><path d="M563 577L616 600L580 416Z" fill="#174657" stroke="#0F3446"></path><path d="M134 423L162 462L197 433Z" fill="#174657" stroke="#0F3446"></path><path d="M197 433L162 462L275 454Z" fill="#257780" stroke="#0F3446"></path><path d="M135 90L254 123L261 50Z" fill="#174657" stroke="#0F3446"></path><path d="M171 160L130 157L186 251Z" fill="#0c1c29" stroke="#0F3446"></path><path d="M723 462L758 421L636 371Z" fill="#174657" stroke="#0F3446"></path><path d="M758 421L774 385L636 371Z" fill="#153b4c" stroke="#0F3446"></path><path d="M289 0L244 0L265 49Z" fill="#153b4c" stroke="#0F3446"></path><path d="M124 365L134 423L197 433Z" fill="#369090" stroke="#0F3446"></path><path d="M162 462L258 582L286 472Z" fill="#153b4c" stroke="#0F3446"></path><path d="M372 588L245 600L426 600Z" fill="#2d8388" stroke="#0F3446"></path><path d="M554 600L616 600L563 577Z" fill="#257780" stroke="#0F3446"></path><path d="M777 467L796 428L758 421Z" fill="#123040" stroke="#0F3446"></path><path d="M211 0L135 90L261 50Z" fill="#2d8388" stroke="#0F3446"></path><path d="M244 0L211 0L261 50Z" fill="#0c1c29" stroke="#0F3446"></path><path d="M815 181L801 160L741 240Z" fill="#0f2635" stroke="#0F3446"></path><path d="M741 240L801 160L652 172Z" fill="#369090" stroke="#0F3446"></path><path d="M134 423L137 490L162 462Z" fill="#0c1c29" stroke="#0F3446"></path><path d="M162 462L225 600L258 582Z" fill="#369090" stroke="#0F3446"></path><path d="M80 491L137 490L134 423Z" fill="#206a76" stroke="#0F3446"></path><path d="M801 160L799 142L652 172Z" fill="#257780" stroke="#0F3446"></path><path d="M758 421L796 428L774 385Z" fill="#257780" stroke="#0F3446"></path><path d="M850 250L815 181L741 240Z" fill="#195262" stroke="#0F3446"></path><path d="M777 467L758 421L723 462Z" fill="#1c5e6c" stroke="#0F3446"></path><path d="M735 528L777 467L723 462Z" fill="#174657" stroke="#0F3446"></path><path d="M850 250L741 240L774 385Z" fill="#369090" stroke="#0F3446"></path><path d="M801 160L815 181L799 142Z" fill="#0c1c29" stroke="#0F3446"></path><path d="M616 600L735 528L723 462Z" fill="#195262" stroke="#0F3446"></path><path d="M225 600L245 600L258 582Z" fill="#123040" stroke="#0F3446"></path><path d="M258 582L245 600L372 588Z" fill="#174657" stroke="#0F3446"></path><path d="M770 55L747 43L671 92Z" fill="#0f2635" stroke="#0F3446"></path><path d="M137 490L225 600L162 462Z" fill="#206a76" stroke="#0F3446"></path><path d="M770 0L770 55L885 0Z" fill="#0f2635" stroke="#0F3446"></path><path d="M799 142L770 55L671 92Z" fill="#0c1c29" stroke="#0F3446"></path><path d="M211 0L112 69L135 90Z" fill="#257780" stroke="#0F3446"></path><path d="M135 90L112 69L130 157Z" fill="#2d8388" stroke="#0F3446"></path><path d="M25 286L39 361L123 342Z" fill="#2d8388" stroke="#0F3446"></path><path d="M849 363L850 250L774 385Z" fill="#2d8388" stroke="#0F3446"></path><path d="M900 71L770 55L799 142Z" fill="#1c5e6c" stroke="#0F3446"></path><path d="M796 428L849 363L774 385Z" fill="#1c5e6c" stroke="#0F3446"></path><path d="M900 345L849 363L900 348Z" fill="#369090" stroke="#0F3446"></path><path d="M900 447L796 428L777 467Z" fill="#1c5e6c" stroke="#0F3446"></path><path d="M713 600L773 533L735 528Z" fill="#1c5e6c" stroke="#0F3446"></path><path d="M735 528L773 533L777 467Z" fill="#369090" stroke="#0F3446"></path><path d="M616 600L713 600L735 528Z" fill="#174657" stroke="#0F3446"></path><path d="M123 342L39 361L124 365Z" fill="#0f2635" stroke="#0F3446"></path><path d="M124 365L39 361L134 423Z" fill="#206a76" stroke="#0F3446"></path><path d="M25 286L186 251L130 157Z" fill="#0c1c29" stroke="#0F3446"></path><path d="M0 255L25 286L130 157Z" fill="#0f2635" stroke="#0F3446"></path><path d="M39 361L80 491L134 423Z" fill="#369090" stroke="#0F3446"></path><path d="M137 490L126 600L225 600Z" fill="#257780" stroke="#0F3446"></path><path d="M900 103L799 142L815 181Z" fill="#174657" stroke="#0F3446"></path><path d="M770 55L770 0L747 43Z" fill="#369090" stroke="#0F3446"></path><path d="M747 43L770 0L639 0Z" fill="#123040" stroke="#0F3446"></path><path d="M0 184L0 255L130 157Z" fill="#2d8388" stroke="#0F3446"></path><path d="M25 286L0 401L39 361Z" fill="#0f2635" stroke="#0F3446"></path><path d="M39 361L0 401L80 491Z" fill="#2d8388" stroke="#0F3446"></path><path d="M80 491L126 600L137 490Z" fill="#257780" stroke="#0F3446"></path><path d="M900 345L900 222L850 250Z" fill="#257780" stroke="#0F3446"></path><path d="M850 250L900 222L815 181Z" fill="#174657" stroke="#0F3446"></path><path d="M900 348L849 363L900 447Z" fill="#2d8388" stroke="#0F3446"></path><path d="M849 363L900 345L850 250Z" fill="#174657" stroke="#0F3446"></path><path d="M900 447L849 363L796 428Z" fill="#174657" stroke="#0F3446"></path><path d="M0 114L0 184L130 157Z" fill="#195262" stroke="#0F3446"></path><path d="M0 255L0 401L25 286Z" fill="#257780" stroke="#0F3446"></path><path d="M80 491L85 600L126 600Z" fill="#369090" stroke="#0F3446"></path><path d="M0 86L0 114L112 69Z" fill="#2d8388" stroke="#0F3446"></path><path d="M112 69L0 114L130 157Z" fill="#0c1c29" stroke="#0F3446"></path><path d="M900 524L777 467L773 533Z" fill="#174657" stroke="#0F3446"></path><path d="M900 524L900 447L777 467Z" fill="#2d8388" stroke="#0F3446"></path><path d="M900 222L900 103L815 181Z" fill="#2d8388" stroke="#0F3446"></path><path d="M0 531L85 600L80 491Z" fill="#195262" stroke="#0F3446"></path><path d="M18 0L0 86L112 69Z" fill="#174657" stroke="#0F3446"></path><path d="M0 401L0 476L80 491Z" fill="#369090" stroke="#0F3446"></path><path d="M713 600L820 600L773 533Z" fill="#123040" stroke="#0F3446"></path><path d="M900 103L900 71L799 142Z" fill="#369090" stroke="#0F3446"></path><path d="M211 0L18 0L112 69Z" fill="#0f2635" stroke="#0F3446"></path><path d="M820 600L900 524L773 533Z" fill="#0c1c29" stroke="#0F3446"></path><path d="M0 476L0 531L80 491Z" fill="#123040" stroke="#0F3446"></path><path d="M900 71L885 0L770 55Z" fill="#257780" stroke="#0F3446"></path><path d="M18 0L0 0L0 86Z" fill="#195262" stroke="#0F3446"></path><path d="M900 71L900 0L885 0Z" fill="#123040" stroke="#0F3446"></path><path d="M0 531L0 600L85 600Z" fill="#195262" stroke="#0F3446"></path><path d="M820 600L900 600L900 524Z" fill="#174657" stroke="#0F3446"></path></g></svg>